HIERARCHY
ROOT Hips
{
	OFFSET 0.000000 0.000000 0.000000 
	CHANNELS 6 Xposition Yposition Zposition Yrotation Zrotation Xrotation 
	JOINT Lumbar
	{
		OFFSET 0.000000 0.000000 0.000000 
		CHANNELS 3 Zrotation Xrotation Yrotation
		JOINT Neck
		{
			OFFSET 0.000000 0.445665 0.000000 
			CHANNELS 3 Zrotation Xrotation Yrotation
			End Site
			{
				OFFSET 0.000000 0.227535 0.000000 
			}
		}
		JOINT RightShoulder
		{
			OFFSET 0.019635 0.377685 0.194865 
			CHANNELS 3 Zrotation Xrotation Yrotation
			JOINT RightElbow
			{
				OFFSET 0.000000 -0.243375 0.000000 
				CHANNELS 2 Zrotation Yrotation
				JOINT RightWrist
				{
					OFFSET 0.000000 -0.264825 0.000000 
					CHANNELS 2 Zrotation Xrotation
					End Site
					{
						OFFSET 0.006600 -0.176220 0.000990 
					}
				}
			}
		}
		JOINT LeftShoulder
		{
			OFFSET 0.019635 0.377685 -0.194865 
			CHANNELS 3 Zrotation Xrotation Yrotation
			JOINT LeftElbow
			{
				OFFSET 0.000000 -0.243375 0.000000 
				CHANNELS 2 Zrotation Yrotation
				JOINT LeftWrist
				{
					OFFSET 0.000000 -0.264825 0.000000 
					CHANNELS 2 Zrotation Xrotation
					End Site
					{
						OFFSET 0.006600 -0.176220 -0.000990 
					}
				}
			}
		}
	}
	JOINT RightHip
	{
		OFFSET 0.052140 -0.069960 0.075570 
		CHANNELS 3 Zrotation Xrotation Yrotation
		JOINT RightKnee
		{
			OFFSET 0.000000 -0.402270 0.000000 
			CHANNELS 1 Zrotation
			JOINT RightAnkle
			{
				OFFSET 0.000000 -0.404085 0.000000 
				CHANNELS 3 Zrotation Xrotation Yrotation
				End Site
				{
					OFFSET 0.204105 -0.089430 0.008415 
				}
			}
		}
	}
	JOINT LeftHip
	{
		OFFSET 0.052140 -0.069960 -0.075570 
		CHANNELS 3 Zrotation Xrotation Yrotation
		JOINT LeftKnee
		{
			OFFSET 0.000000 -0.402270 0.000000 
			CHANNELS 1 Zrotation
			JOINT LeftAnkle
			{
				OFFSET 0.000000 -0.404085 0.000000 
				CHANNELS 3 Zrotation Xrotation Yrotation
				End Site
				{
					OFFSET 0.204105 -0.089430 -0.008415 
				}
			}
		}
	}
}
MOTION
Frames: 22
Frame Time: 0.02
-0.00269 -0.00036 -0.00025 174.02501 -31.54284 -3.13451 45.00042 2.11671 -5.62994 -7.31175 -5.37657 -0.17783 -13.45074 -13.58151 11.2276 47.81291 66.42795 2.19488 -5.37755 -21.48559 12.54822 -8.36197 45.79293 -94.7502 11.81393 0.64261 33.71586 -0.4017 -2.27075 -21.1146 -9.62686 -5.47656 -3.75615 36.02179 10.0088 9.45211 -26.97293 -8.17427 4.3055 2.99051
-0.00291 -0.0004 -0.00201 173.9744 -31.55613 -3.11179 44.96981 2.12033 -5.52021 -7.4844 -5.24893 -0.17924 -13.84216 -13.18698 10.12321 46.99944 70.79428 2.95677 -4.42345 -21.86842 12.61836 -7.90295 45.45994 -94.73581 11.85371 0.63141 33.71686 -0.4096 -2.73446 -21.12525 -9.56884 -5.44729 -3.73296 36.00028 9.96831 8.89146 -26.96025 -8.22966 4.35107 3.01996
-0.00312 -0.00045 -0.00377 173.92422 -31.56947 -3.08909 44.93918 2.1239 -5.41081 -7.65669 -5.12153 -0.18066 -14.23318 -12.79385 9.02187 46.18737 75.14186 3.71531 -3.47348 -22.2505 12.68846 -7.4448 45.12736 -94.72155 11.89346 0.62023 33.71797 -0.41748 -3.19752 -21.13591 -9.51095 -5.41808 -3.70981 35.979 9.92806 8.33232 -26.94761 -8.28489 4.3965 3.04932
-0.00333 -0.00049 -0.00553 173.8738 -31.58272 -3.06644 44.90866 2.1275 -5.30141 -7.82883 -4.99425 -0.18207 -14.62352 -12.40058 7.92085 45.37622 79.49371 4.47466 -2.52255 -22.63223 12.75842 -6.98711 44.79531 -94.70723 11.93313 0.60907 33.71898 -0.42536 -3.65994 -21.14654 -9.4531 -5.38889 -3.68669 35.95758 9.88771 7.77334 -26.93496 -8.34011 4.44194 3.07868
-0.00354 -0.00054 -0.00729 173.82288 -31.59589 -3.04377 44.87817 2.13119 -5.19169 -8.00125 -4.8668 -0.18348 -15.01399 -12.00581 6.81683 44.56411 83.86677 5.23783 -1.56695 -23.01455 12.82835 -6.52875 44.46306 -94.69276 11.97279 0.59789 33.71987 -0.43325 -4.12268 -21.15715 -9.39515 -5.35966 -3.66353 35.93587 9.8471 7.21297 -26.92228 -8.39549 4.48753 3.10815
-0.00375 -0.00058 -0.00905 173.77428 -31.6096 -3.02102 44.84724 2.13448 -5.08298 -8.17326 -4.73951 -0.1849 -15.40614 -11.61616 5.72118 43.7522 88.16087 5.98665 -0.62881 -23.39607 12.89881 -6.07104 44.12979 -94.67894 12.01273 0.5867 33.72142 -0.44112 -4.58636 -21.16792 -9.33739 -5.3305 -3.64042 35.91551 9.80763 6.65649 -26.90971 -8.45041 4.53263 3.13727
-0.00397 -0.00063 -0.0108 173.72101 -31.62218 -2.99848 44.81729 2.13858 -4.97235 -8.34592 -4.61203 -0.18631 -15.79442 -11.21671 4.61011 42.94074 92.60749 6.76319 0.34308 -23.77883 12.96811 -5.61261 43.79901 -94.66381 12.05207 0.57554 33.72162 -0.44905 -5.04774 -21.17835 -9.27931 -5.30123 -3.61723 35.89241 9.76586 6.09269 -26.89694 -8.50618 4.57866 3.16705
-0.00418 -0.00067 -0.01256 173.67215 -31.63583 -2.97572 44.78634 2.14192 -4.86349 -8.51795 -4.48476 -0.18772 -16.18637 -10.82617 3.51288 42.12892 96.91645 7.51478 1.28451 -24.16036 13.03851 -5.1547 43.46582 -94.64991 12.09196 0.56436 33.72311 -0.45684 -5.51105 -21.18909 -9.22153 -5.27206 -3.59413 35.87193 9.72629 5.53582 -26.88434 -8.56117 4.62381 3.19622
-0.00438 -0.00072 -0.01433 173.62827 -31.6507 -2.95277 44.75448 2.14436 -4.75675 -8.68944 -4.35751 -0.18913 -16.58269 -10.44688 2.43354 41.31592 101.04615 8.2336 2.18626 -24.54096 13.1102 -4.69771 43.12989 -94.63747 12.13256 0.55313 33.72599 -0.4648 -5.97783 -21.20023 -9.16403 -5.24297 -3.57106 35.85431 9.68908 4.98642 -26.87197 -8.61525 4.66801 3.22468
-0.00464 -0.00077 -0.01607 173.5545 -31.65832 -2.93113 44.72883 2.15208 -4.63767 -8.86474 -4.2294 -0.19055 -16.95354 -10.00393 1.25417 40.50745 106.1742 9.13414 3.30895 -24.92864 13.1743 -4.23626 42.81032 -94.6165 12.16919 0.54212 33.72032 -0.47282 -6.42798 -21.20916 -9.10467 -5.21329 -3.54757 35.81923 9.63732 4.39103 -26.85838 -8.6747 4.71806 3.25732
-0.00476 -0.00081 -0.01787 173.54456 -31.68134 -2.90661 44.68948 2.14858 -4.54475 -9.03151 -4.1036 -0.19196 -17.37825 -9.69461 0.28409 39.69104 109.21729 9.65569 3.97028 -25.30021 13.2545 -3.78377 42.45594 -94.61357 12.21409 0.53071 33.73304 -0.48005 -6.91096 -21.22269 -9.0494 -5.18497 -3.52512 35.82158 9.61689 3.89466 -26.84731 -8.7227 4.75553 3.28107
-0.00452 -0.00083 -0.01981 173.70535 -31.74622 -2.87513 44.61675 2.11465 -4.52307 -9.17882 -3.98024 -0.19336 -17.95134 -9.76137 -0.09117 38.83915 106.30455 9.09033 3.31327 -25.63668 13.37864 -3.35979 42.00758 -94.66017 12.28309 0.51745 33.79398 -0.49063 -7.50377 -21.24958 -9.00418 -5.15932 -3.50443 35.92291 9.67802 3.65532 -26.84345 -8.74013 4.76012 3.28097
-0.00412 -0.00085 -0.02182 173.93106 -31.82659 -2.84058 44.52934 2.0694 -4.52771 -9.31686 -3.85998 -0.19476 -18.57819 -9.96069 -0.25954 37.98222 101.34051 8.15291 2.20244 -25.95511 13.51895 -2.9443 41.52421 -94.72472 12.36015 0.50392 33.87381 -0.49938 -8.12585 -21.28097 -8.9633 -5.13524 -3.485 36.06249 9.77133 3.51752 -26.84202 -8.74595 4.75184 3.27186
-0.00377 -0.00088 -0.02382 174.12997 -31.90023 -2.80686 44.44606 2.02907 -4.52067 -9.45656 -3.74076 -0.19613 -19.18037 -10.09306 -0.53671 37.13596 97.46974 7.41665 1.33375 -26.27604 13.65207 -2.52211 41.05554 -94.78124 12.43257 0.49099 33.94651 -0.50541 -8.72175 -21.30985 -8.92117 -5.11111 -3.46571 36.18702 9.85297 3.34357 -26.8393 -8.75643 4.74834 3.26648
-0.00351 -0.0009 -0.02574 174.31764 -31.97284 -2.77557 44.37404 1.98958 -4.51264 -9.60696 -3.61092 -0.19761 -19.78465 -10.25349 -0.75338 36.25258 92.91968 6.54506 0.3136 -26.62168 13.78471 -2.11105 40.5909 -94.83789 12.50905 0.47605 34.01318 -0.52654 -9.37234 -21.34073 -8.87595 -5.08409 -3.44343 36.30186 9.92267 3.13008 -26.83749 -8.76924 4.74913 3.26254
-0.00303 -0.00092 -0.02783 174.54407 -32.05097 -2.73841 44.27439 1.94576 -4.51274 -9.73295 -3.50429 -0.19888 -20.39607 -10.38755 -1.04414 35.44747 89.29231 5.86609 -0.49994 -26.91073 13.92199 -1.67991 40.11086 -94.89772 12.57912 0.46521 34.09677 -0.51563 -9.91562 -21.36848 -8.83828 -5.06357 -3.42767 36.44585 10.02427 3.01997 -26.83424 -8.77475 4.73819 3.2536
-0.00203 -0.00096 -0.03034 174.86179 -32.14321 -2.68663 44.10787 1.89191 -4.53034 -9.79315 -3.45795 -0.19948 -21.02372 -10.41032 -1.61527 34.8418 88.77449 5.82078 -0.6189 -27.05506 14.06966 -1.18258 39.58646 -94.96924 12.62806 0.46598 34.22368 -0.41825 -10.15833 -21.38689 -8.81968 -5.05987 -3.42952 36.66202 10.21077 3.19491 -26.82744 -8.76047 4.69599 3.23204
-0.00083 -0.001 -0.03301 175.21622 -32.24005 -2.62888 43.91289 1.8343 -4.55494 -9.82914 -3.4354 -0.19991 -21.65438 -10.40306 -2.26324 34.31867 89.24577 5.98026 -0.51655 -27.14159 14.22108 -0.66677 39.05007 -95.0422 12.67047 0.47087 34.36688 -0.28845 -10.29171 -21.40195 -8.80863 -5.06279 -3.43791 36.90615 10.42717 3.46495 -26.81891 -8.73981 4.64288 3.20601
0.0003 -0.00104 -0.03562 175.55379 -32.33296 -2.57332 43.72723 1.77893 -4.57531 -9.87677 -3.40402 -0.20046 -22.27795 -10.41345 -2.85993 33.76917 89.22546 6.03907 -0.52389 -27.25012 14.3699 -0.16454 38.52556 -95.10944 12.71685 0.47373 34.50163 -0.17239 -10.47291 -21.41827 -8.79467 -5.06322 -3.4434 37.13659 10.62704 3.67648 -26.81053 -8.72354 4.59598 3.18263
0.00136 -0.00107 -0.03815 175.89446 -32.43389 -2.51989 43.55662 1.72075 -4.60095 -9.92179 -3.36455 -0.20075 -22.92961 -10.41151 -3.51949 33.17139 89.31039 6.11703 -0.50857 -27.3767 14.52341 0.36101 37.97125 -95.19777 12.75949 0.47717 34.64082 -0.06025 -10.66204 -21.43578 -8.77883 -5.06164 -3.44868 37.37186 10.84128 3.95956 -26.80497 -8.70012 4.54302 3.15613
0.00263 -0.00112 -0.04089 176.23642 -32.51938 -2.46062 43.3477 1.66789 -4.61704 -9.96613 -3.34735 -0.20163 -23.52021 -10.42649 -4.06777 32.69519 89.43875 6.20851 -0.48201 -27.45136 14.66738 0.8403 37.4784 -95.24345 12.80802 0.48049 34.7752 0.06748 -10.80954 -21.45006 -8.76845 -5.06565 -3.45586 37.60402 11.03124 4.11054 -26.79306 -8.69076 4.50069 3.13546
0.0044 -0.00118 -0.04413 176.57383 -32.55759 -2.38684 43.04349 1.62914 -4.60395 -10.0186 -3.38725 -0.20346 -23.96253 -10.49432 -4.30124 32.52328 89.44714 6.28989 -0.47607 -27.40371 14.78776 1.20565 37.14355 -95.16374 12.87723 0.48106 34.88533 0.23235 -10.85844 -21.45518 -8.77287 -5.08471 -3.46734 37.81382 11.15586 3.91161 -26.76425 -8.71712 4.48654 3.12951
